<?xml version="1.0" encoding="utf-8"?>
<!-- Generator: Adobe Illustrator 23.0.3, SVG Export Plug-In . SVG Version: 6.00 Build 0)  -->
<svg version="1.1" id="Layer_1" xmlns="http://www.w3.org/2000/svg" xmlns:xlink="http://www.w3.org/1999/xlink" x="0px" y="0px"
	 viewBox="0 0 24 24" style="enable-background:new 0 0 24 24;" xml:space="preserve">
<style type="text/css">
	.st0{fill:url(#SVGID_1_);}
	.st1{fill:url(#SVGID_2_);}
	.st2{fill:url(#SVGID_3_);}
	.st3{fill:url(#SVGID_4_);}
	.st4{fill:url(#SVGID_5_);}
	.st5{fill:url(#SVGID_6_);}
	.st6{fill:url(#SVGID_7_);}
	.st7{fill:url(#SVGID_8_);}
	.st8{fill:url(#SVGID_9_);}
	.st9{fill:url(#SVGID_10_);}
	.st10{fill:url(#SVGID_11_);}
	.st11{fill:url(#SVGID_12_);}
	.st12{fill:url(#SVGID_13_);}
	.st13{fill:url(#SVGID_14_);}
	.st14{fill:url(#SVGID_15_);}
	.st15{fill:url(#SVGID_16_);}
	.st16{fill:url(#SVGID_17_);}
	.st17{fill:url(#SVGID_18_);}
	.st18{fill:url(#SVGID_19_);}
	.st19{fill:url(#SVGID_20_);}
	.st20{fill:url(#SVGID_21_);}
	.st21{fill:url(#SVGID_22_);}
	.st22{fill:url(#SVGID_23_);}
	.st23{fill:url(#SVGID_24_);}
	.st24{fill:url(#SVGID_25_);}
	.st25{fill:url(#SVGID_26_);}
	.st26{fill:url(#SVGID_27_);}
	.st27{fill:url(#SVGID_28_);}
	.st28{fill:url(#SVGID_29_);}
	.st29{fill:url(#SVGID_30_);}
	.st30{fill:url(#SVGID_31_);}
	.st31{fill:url(#SVGID_32_);}
</style>
<g>
	<g>
		<linearGradient id="SVGID_1_" gradientUnits="userSpaceOnUse" x1="3.1397" y1="11.7321" x2="20.7335" y2="11.7321">
			<stop  offset="0" style="stop-color:#1245C6"/>
			<stop  offset="1" style="stop-color:#9909B7"/>
		</linearGradient>
		<path class="st0" d="M19.6,7.3c-0.8-1.3-1.9-2.4-3.2-3.2c-1.3-0.8-2.8-1.2-4.4-1.2c-1.6,0-3.1,0.4-4.4,1.2C6.2,4.9,5.1,6,4.3,7.3
			c-0.8,1.3-1.2,2.8-1.2,4.4c0,1.6,0.4,3.1,1.2,4.4c0.8,1.3,1.9,2.4,3.2,3.2c1.3,0.8,2.8,1.2,4.4,1.2s3.1-0.4,4.4-1.2
			c1.3-0.8,2.4-1.9,3.2-3.2c0.8-1.3,1.2-2.8,1.2-4.4C20.7,10.1,20.3,8.7,19.6,7.3z M17.7,13.3l-1.2,1.2c-0.1,0.1-0.3,0.2-0.5,0.2
			c-0.2,0-0.4-0.1-0.5-0.2L11.9,11l-3.5,3.5c-0.1,0.1-0.3,0.2-0.5,0.2c-0.2,0-0.4-0.1-0.5-0.2l-1.2-1.2C6.1,13.2,6,13,6,12.8
			c0-0.2,0.1-0.4,0.2-0.5l5.2-5.2c0.1-0.1,0.3-0.2,0.5-0.2c0.2,0,0.4,0.1,0.5,0.2l5.2,5.2c0.1,0.1,0.2,0.3,0.2,0.5
			C17.9,13,17.8,13.2,17.7,13.3z"/>
	</g>
</g>
</svg>
