<svg height="512" viewBox="0 0 64 64" width="512" xmlns="http://www.w3.org/2000/svg"><g id="Flat"><g id="Stroke_copy_2" data-name="Stroke copy 2"><g><path d="m30 25a1 1 0 0 1 -1-1v-3a1 1 0 0 1 2 0v3a1 1 0 0 1 -1 1z" fill="#7ab92d"/><path d="m36 45.2v-2.2h-8v2.2a3.37 3.37 0 0 1 -1.5 2.8 3.37 3.37 0 0 0 -1.5 2.8v8.2a2 2 0 0 0 2 2h10a2 2 0 0 0 2-2v-8.2a3.37 3.37 0 0 0 -1.5-2.8 3.37 3.37 0 0 1 -1.5-2.8z" fill="#aae1f9"/><path d="m26 39h12v4h-12z" fill="#c4f236"/><g><path d="m44.119 27.673-3.759-1.368.7-1.932a37.876 37.876 0 0 0 2.04-17.29l11.277 4.1a37.872 37.872 0 0 0 -9.554 14.554z" fill="#a1d51c"/><path d="m43.1 7.082a37.69 37.69 0 0 1 .2 5.882 1.927 1.927 0 0 0 1.865 1.359 2.983 2.983 0 0 0 1.8 1.852 37.876 37.876 0 0 0 -3.148 6.565 2.056 2.056 0 0 1 -2.617 1.232c-.047.133-.085.268-.133.4l-.7 1.932 3.759 1.368.7-1.932a37.872 37.872 0 0 1 9.554-14.554z" fill="#7ab92d"/><path d="m56.3 11.617a1.994 1.994 0 1 0 -.729-3.917 3.987 3.987 0 0 0 -6.771-3.5 2.977 2.977 0 0 0 -5.013 1 3 3 0 1 0 .424 5.431 1.961 1.961 0 0 0 1.96 1.689 2.982 2.982 0 0 0 4.61 1.443 2.994 2.994 0 1 0 5.519-2.146z" fill="#c4f236"/><path d="m54.666 13.885a2.992 2.992 0 0 1 -1.889-2.119 2.982 2.982 0 0 1 -4.61-1.443 1.961 1.961 0 0 1 -1.96-1.689 2.979 2.979 0 0 1 -4.307-3.475 2.99 2.99 0 1 0 2.31 5.475 1.961 1.961 0 0 0 1.96 1.689 2.982 2.982 0 0 0 4.61 1.443 3 3 0 0 0 5.734.326c.019-.053.023-.108.039-.162a2.97 2.97 0 0 1 -1.887-.045z" fill="#a1d51c"/></g><g><path d="m22.063 13.429-4-6.929a7 7 0 1 0 -5.2 10.449 4.99 4.99 0 1 0 9.2-3.52z" fill="#f89c8d"/><circle cx="12" cy="10" fill="#aae1f9" r="2"/><path d="m21.232 17.259a4.939 4.939 0 0 1 -7.372-3.31 6.992 6.992 0 0 1 -7.822-7.618 7 7 0 0 0 6.822 10.618 4.976 4.976 0 0 0 9.852-.994 4.976 4.976 0 0 1 -1.48 1.304z" fill="#f8664f"/></g><g><rect fill="#f9e109" height="8" rx="3" transform="matrix(.5 .866 -.866 .5 22.696 -21.114)" width="12" x="23.633" y="5.099"/><path d="m34.5 10.8a5 5 0 0 1 -6.831-1.83l-2-3.465a2.933 2.933 0 0 1 -.306-.806 2.993 2.993 0 0 0 -.694 3.801l3 5.2a3 3 0 0 0 4.1 1.1l1.733-1a2.992 2.992 0 0 0 1.398-3.3 2.971 2.971 0 0 1 -.4.3z" fill="#fcbc04"/></g><g><circle cx="30" cy="29" fill="#f9e109" r="5"/><path d="m33 20h3a0 0 0 0 1 0 0 4 4 0 0 1 -4 4h-2a0 0 0 0 1 0 0v-1a3 3 0 0 1 3-3z" fill="#c4f236"/><path d="m32 32a5 5 0 0 1 -5-5 4.95 4.95 0 0 1 .625-2.375 4.984 4.984 0 1 0 6.75 6.75 4.95 4.95 0 0 1 -2.375.625z" fill="#fcbc04"/><path d="m32 22h-1.816a2.962 2.962 0 0 0 -.184 1v1h2a4 4 0 0 0 4-4h-.555a3.982 3.982 0 0 1 -3.445 2z" fill="#a1d51c"/></g><path d="m35.2 58a7.2 7.2 0 0 1 -7.2-7.2 3.37 3.37 0 0 1 1.5-2.8 3.37 3.37 0 0 0 1.5-2.8v-.2h5v-2h-8v2.2a3.37 3.37 0 0 1 -1.5 2.8 3.37 3.37 0 0 0 -1.5 2.8v8.2a2 2 0 0 0 2 2h10a2 2 0 0 0 2-2v-1z" fill="#57b7eb"/><path d="m32 58a1 1 0 0 1 -.831-1.555l.963-1.445h-2.132a1 1 0 0 1 -.832-1.555l2-3a1 1 0 0 1 1.664 1.11l-.964 1.445h2.132a1 1 0 0 1 .832 1.555l-2 3a1 1 0 0 1 -.832.445z" fill="#f9e109"/><path d="m24 37a1 1 0 0 1 -.669-.257l-20-18a1 1 0 1 1 1.338-1.486l20 18a1 1 0 0 1 -.669 1.743z" fill="#57b7eb"/><path d="m40 37a1 1 0 0 1 -.669-1.743l20-18a1 1 0 1 1 1.338 1.486l-20 18a1 1 0 0 1 -.669.257z" fill="#57b7eb"/><g fill="#e59730"><path d="m34.6 9.7-2.6 1.5a1 1 0 0 1 -1-1.732l2.6-1.5z"/><path d="m32.6 6.232-2.6 1.5a1 1 0 1 1 -1-1.732l2.6-1.5z"/></g><circle cx="28" cy="31" fill="#e59730" r="1"/><g fill="#c4f236"><circle cx="38" cy="16" r="1"/><circle cx="35" cy="35" r="1"/><circle cx="19" cy="25" r="1"/><circle cx="21" cy="5" r="1"/></g><path d="m32 58a1 1 0 0 0 .807-.415 7.152 7.152 0 0 1 -1.739-.894.986.986 0 0 0 .378 1.141 1 1 0 0 0 .554.168z" fill="#fcbc04"/></g></g></g></svg>